# This file uses centimeters as units for non-parametric coordinates.

v 0.134235 -0.562108 -0.134235
v 0.000000 -0.562108 -0.189837
v -0.134235 -0.562108 -0.134235
v -0.189837 -0.562108 0.000000
v -0.134235 -0.562108 0.134235
v 0.000000 -0.562108 0.189837
v 0.134235 -0.562108 0.134235
v 0.189837 -0.562108 0.000000
v 0.248033 -0.430219 -0.248033
v 0.000000 -0.430219 -0.350772
v -0.248033 -0.430219 -0.248033
v -0.350772 -0.430219 0.000000
v -0.248033 -0.430219 0.248033
v 0.000000 -0.430219 0.350772
v 0.248033 -0.430219 0.248033
v 0.350772 -0.430219 0.000000
v 0.324071 -0.232833 -0.324071
v 0.000000 -0.232833 -0.458306
v -0.324071 -0.232833 -0.324071
v -0.458306 -0.232833 0.000000
v -0.324071 -0.232833 0.324071
v 0.000000 -0.232833 0.458306
v 0.324071 -0.232833 0.324071
v 0.458306 -0.232833 0.000000
v 0.350772 0.000000 -0.350772
v 0.000000 0.000000 -0.496067
v -0.350772 0.000000 -0.350772
v -0.496067 0.000000 0.000000
v -0.350772 0.000000 0.350772
v 0.000000 0.000000 0.496067
v 0.350772 0.000000 0.350772
v 0.496067 0.000000 0.000000
v 0.309462 0.163850 -0.309462
v 0.000000 0.163850 -0.437645
v -0.309462 0.163850 -0.309462
v -0.437645 0.163850 0.000000
v -0.309462 0.163850 0.309462
v 0.000000 0.163850 0.437645
v 0.309462 0.163850 0.309462
v 0.437645 0.163850 0.000000
v 0.182056 0.253073 -0.187806
v 0.023646 0.253073 -0.253421
v -0.134764 0.253073 -0.187806
v -0.200380 0.253073 -0.029396
v -0.134764 0.253073 0.129014
v 0.023646 0.253073 0.194630
v 0.182056 0.253073 0.129014
v 0.247672 0.253073 -0.029396
v 0.000000 -0.608422 0.000000
v 0.067573 0.263495 0.003058
v 0.023460 0.265622 0.021206
v -0.020652 0.263495 0.003058
v -0.038924 0.258361 -0.040755
v -0.020652 0.253227 -0.084568
v 0.023460 0.251099 -0.102716
v 0.067573 0.253227 -0.084568
v 0.085845 0.258361 -0.040755
v -0.046873 0.404913 0.025016
v -0.069888 0.411617 0.033665
v -0.092721 0.415463 0.023021
v -0.101997 0.414197 -0.000682
v -0.092281 0.408561 -0.023557
v -0.069267 0.401856 -0.032206
v -0.046433 0.398011 -0.021561
v -0.037157 0.399277 0.002141
v -0.077078 0.503166 0.043281
v -0.101721 0.517637 0.052781
v -0.122830 0.534630 0.039645
v -0.128040 0.544192 0.011567
v -0.114298 0.540721 -0.015005
v -0.089655 0.526249 -0.024505
v -0.068547 0.509255 -0.011369
v -0.063337 0.499695 0.016709
v 0.050190 0.701842 0.062069
v 0.038660 0.721597 0.068097
v 0.016115 0.735792 0.053248
v 0.005732 0.729832 0.032787
v 0.004760 0.710940 0.016314
v 0.017095 0.689382 0.013243
v 0.035510 0.677788 0.025372
v 0.049219 0.682949 0.045596
v 0.197412 0.766689 -0.203135
v 0.184480 0.781983 -0.199099
v 0.167747 0.789366 -0.208280
v 0.157013 0.784511 -0.225299
v 0.158567 0.770265 -0.240187
v 0.171499 0.754971 -0.244223
v 0.188700 0.748976 -0.237943
v 0.202321 0.755678 -0.217865
v 0.128829 0.713779 -0.050762
v 0.130042 0.733177 -0.035441
v 0.117075 0.753854 -0.032269
v 0.097524 0.763700 -0.043102
v 0.082840 0.756945 -0.061595
v 0.081627 0.737549 -0.076915
v 0.094594 0.716870 -0.080089
v 0.114145 0.707025 -0.069255
v 0.262790 0.851292 -0.289462
v 0.189324 0.739317 -0.204872
v 0.188347 0.755423 -0.192454
v 0.175302 0.771448 -0.188373
v 0.158298 0.779392 -0.197919
v 0.147297 0.774603 -0.215501
v 0.148743 0.759886 -0.230819
v 0.161788 0.743861 -0.234900
v 0.175386 0.732695 -0.225623
v 0.224488 0.708932 -0.298300
v 0.237682 0.714525 -0.273808
v 0.231067 0.729936 -0.307409
v 0.243857 0.735653 -0.283637
v 0.393889 0.744343 -0.389987
v 0.052979 0.727575 0.049836
v 0.030662 0.740630 0.035965
v 0.017709 0.733414 0.019859
v 0.016687 0.714930 0.004270
v 0.028855 0.694321 0.001257
v 0.047085 0.683658 0.012589
v 0.060698 0.689189 0.031624
v 0.061720 0.707673 0.047214
v 0.021335 0.799012 0.117506
v 0.204947 0.749778 -0.220306
v 0.194338 0.744986 -0.237414
v 0.185388 0.732868 -0.228037
v 0.196268 0.737592 -0.210369
v 0.050989 0.733575 0.053002
v 0.039293 0.728692 0.067918
v 0.020877 0.740285 0.055789
v 0.032758 0.744236 0.041671
vt 0.529765 0.076256
vt 0.627344 0.096795
vt 0.573364 0.134783
vt 0.456126 0.117991
vt 0.688218 0.103446
vt 0.666788 0.141530
vt 0.740713 0.102763
vt 0.753367 0.140215
vt 0.803240 0.094696
vt 0.848568 0.130267
vt 0.969568 0.107848
vt 0.140761 0.016996
vt 0.140761 0.065398
vt 0.317576 0.017545
vt 0.299631 0.089141
vt 0.543193 0.182817
vt 0.421732 0.171784
vt 0.652198 0.187677
vt 0.757394 0.186300
vt 0.868093 0.178308
vt 0.992267 0.162671
vt 0.140761 0.137835
vt 0.284063 0.155630
vt 0.525479 0.237024
vt 0.403550 0.230699
vt 0.641419 0.240061
vt 0.755927 0.238999
vt 0.874146 0.233994
vt 0.999635 0.226693
vt 0.140761 0.223281
vt 0.274129 0.223759
vt 0.513758 0.294517
vt 0.392858 0.290229
vt 0.632080 0.296545
vt 0.750753 0.295642
vt 0.872932 0.291978
vt 1.000354 0.286824
vt 0.140761 0.283411
vt 0.268145 0.285426
vt 0.504620 0.354271
vt 0.385981 0.350272
vt 0.622393 0.355958
vt 0.742076 0.355046
vt 0.866479 0.351450
vt 0.997073 0.345214
vt 0.141427 0.335778
vt 0.264831 0.344306
vt 0.496353 0.416335
vt 0.381619 0.412284
vt 0.610838 0.417985
vt 0.728681 0.417134
vt 0.853835 0.413562
vt 0.989016 0.406805
vt 0.141641 0.397103
vt 0.263773 0.405746
vt 0.144613 0.455344
vt 0.972502 0.471339
vt 0.831166 0.478858
vt 0.708094 0.481984
vt 0.595932 0.482515
vt 0.488532 0.480866
vt 0.380372 0.476783
vt 0.267000 0.469291
vt 0.153125 0.528019
vt 0.934196 0.544350
vt 0.790350 0.548588
vt 0.676606 0.549430
vt 0.576401 0.549269
vt 0.481492 0.547836
vt 0.384733 0.544824
vt 0.279246 0.539292
vt 0.214370 0.618631
vt 0.179312 0.624305
vt 0.719437 0.621714
vt 0.631557 0.617871
vt 0.551580 0.617298
vt 0.476195 0.616349
vt 0.397851 0.615392
vt 0.312519 0.615165
vt 0.303292 0.692171
vt 0.276714 0.699076
vt 0.522242 0.685727
vt 0.473860 0.684870
vt 0.418006 0.685246
vt 0.358630 0.687352
vt 0.337545 0.774263
vt 0.363460 0.763628
vt 0.427294 0.828950
vt 0.600453 0.766216
vt 0.547123 0.756765
vt 0.532606 0.817542
vt 0.506206 0.752323
vt 0.478869 0.752114
vt 0.441707 0.753378
vt 0.401073 0.756948
vt 1.131777 0.065398
vt 1.131777 0.137835
vt 1.131777 0.223281
vt 1.131777 0.283411
vt 1.132443 0.335778
vt 0.905650 0.073059
vt 1.131777 0.016996
vt 0.718077 0.072693
vt 1.132656 0.397103
vt 1.135628 0.455344
vt 1.144141 0.528019
vt 0.930487 0.636430
vt 0.829829 0.629467
vt 0.678087 0.705771
vt 0.652611 0.697031
vt 0.578502 0.689321
vt 0.631557 0.617871
vt 0.255056 0.713667
vt 0.719437 0.621714
vt 0.600453 0.766216
vt 0.322398 0.792402
vt 0.393730 0.744907
vt 0.353049 0.751264
vt 0.327020 0.761254
vt 0.609478 0.754246
vt 0.310746 0.778780
vt 0.552552 0.745096
vt 0.508980 0.740801
vt 0.478002 0.740479
vt 0.437606 0.741589
vt 0.393730 0.744907
vt 0.437606 0.741589
vt 0.476379 0.535900
vt 0.630024 0.476554
vt 0.415668 0.743248
vt 0.546674 0.534449
vt 0.703424 0.396958
vt 0.775019 0.657029
vt 0.214494 0.651313
vt 0.695299 0.648919
vt 0.695299 0.648919
vt 0.612394 0.643679
vt 0.612394 0.643679
vt 0.540983 0.642015
vt 0.475351 0.641099
vt 0.405131 0.640623
vt 0.329175 0.641239
vt 0.246489 0.645194
vt 0.368715 0.338919
vt 0.461392 0.336774
vt 0.458880 0.370797
vt 0.372257 0.374174
vt 0.699654 0.422627
vt 0.542239 0.549092
vt 0.437606 0.741589
vt 0.393730 0.744907
vt 0.548083 0.337805
vt 0.301400 0.341428
vt 0.308249 0.373823
vt 0.388484 0.574600
vt 0.541191 0.574637
vt 0.640313 0.337453
vt 0.633188 0.369266
vt 0.458880 0.370797
vt 0.548042 0.371256
vt 0.539306 0.957095
vt 0.574825 0.998467
vt 0.627944 0.966392
vt 0.615068 0.912951
vt 0.605854 0.895756
vt 0.549983 0.925579
vt 0.532831 0.759788
vt 0.594821 0.742049
vt 0.606383 0.555035
vt 0.483348 0.550246
vt 0.477487 0.665914
vt 0.537405 0.663778
vt 0.477824 0.790344
vt 0.645246 0.480179
vt 0.670643 0.604412
vt 0.732137 0.556943
vt 0.673375 0.779445
vn 0.318655 -0.892703 -0.318655
vn 0.000000 -0.892703 -0.450646
vn 0.000000 -0.634197 -0.773172
vn 0.546715 -0.634197 -0.546715
vn -0.318655 -0.892703 -0.318655
vn -0.546715 -0.634197 -0.546715
vn -0.450646 -0.892703 -0.000000
vn -0.773172 -0.634197 0.000000
vn -0.318655 -0.892703 0.318655
vn -0.546715 -0.634197 0.546715
vn -0.000000 -0.892703 0.450646
vn -0.000000 -0.634197 0.773172
vn 0.318655 -0.892703 0.318655
vn 0.546715 -0.634197 0.546715
vn 0.450646 -0.892703 0.000000
vn 0.773172 -0.634197 0.000000
vn 0.000000 -0.321610 -0.946872
vn 0.669540 -0.321610 -0.669540
vn -0.669540 -0.321610 -0.669540
vn -0.946872 -0.321610 0.000000
vn -0.669540 -0.321610 0.669540
vn -0.000000 -0.321610 0.946872
vn 0.669540 -0.321611 0.669540
vn 0.946872 -0.321610 -0.000000
vn 0.000000 0.089184 -0.996015
vn 0.704289 0.089184 -0.704289
vn -0.704289 0.089184 -0.704289
vn -0.996015 0.089184 0.000000
vn -0.704289 0.089184 0.704289
vn -0.000000 0.089184 0.996015
vn 0.704289 0.089184 0.704289
vn 0.996015 0.089184 -0.000000
vn 0.004198 0.653889 -0.756579
vn 0.537996 0.648036 -0.539083
vn -0.520934 0.670136 -0.528720
vn -0.728722 0.684801 -0.003543
vn -0.511380 0.691105 0.510749
vn 0.002739 0.687492 0.726187
vn 0.525534 0.674750 0.518195
vn 0.753140 0.657841 -0.004994
vn 0.004219 0.974241 -0.225469
vn 0.165095 0.970892 -0.173527
vn -0.138830 0.978297 -0.153822
vn -0.196978 0.980344 -0.011228
vn -0.144259 0.980230 0.135418
vn 0.002643 0.978342 0.206979
vn 0.164824 0.974944 0.149391
vn 0.236889 0.971452 -0.012805
vn -0.007992 0.829630 -0.558256
vn 0.294026 0.897274 -0.329314
vn -0.518435 0.667025 -0.535072
vn -0.877755 0.479094 0.003985
vn -0.621120 0.460245 0.634338
vn 0.003319 0.627803 0.778365
vn 0.407612 0.818502 0.404855
vn 0.438829 0.897778 -0.037741
vn -0.000000 -1.000000 0.000000
vn 0.667230 0.240560 0.704936
vn -0.060377 -0.136320 0.988823
vn -0.722747 -0.335309 0.604321
vn -0.956324 -0.289534 -0.040184
vn -0.692387 -0.055694 -0.719373
vn 0.041653 0.257894 -0.965275
vn 0.678713 0.440460 -0.587659
vn 0.892137 0.451267 0.021219
vn 0.601273 -0.165878 0.781636
vn -0.118387 -0.095935 0.988322
vn -0.773242 0.061253 0.631146
vn -0.974543 0.195871 -0.109086
vn -0.572804 0.184097 -0.798752
vn 0.155614 0.082374 -0.984377
vn 0.767314 -0.037127 -0.640196
vn 0.986615 -0.141556 0.080948
vn 0.667876 -0.249290 0.701282
vn 0.197244 0.060404 0.978492
vn -0.666261 0.593810 0.451094
vn -0.706582 0.671669 -0.222718
vn -0.582848 0.281425 -0.762291
vn -0.119724 -0.268049 -0.955937
vn 0.487449 -0.665329 -0.565447
vn 0.769957 -0.620711 0.147934
vn 0.794208 -0.090291 0.600900
vn 0.779305 0.434942 0.451119
vn -0.105582 0.983635 -0.145996
vn -0.610901 0.723602 -0.321247
vn -0.757108 0.085109 -0.647722
vn -0.482698 -0.601277 -0.636764
vn 0.103072 -0.958608 -0.265418
vn 0.644417 -0.716838 0.266212
vn 0.324996 0.556352 0.764755
vn 0.764665 0.022870 0.644022
vn 0.584299 0.618669 -0.525208
vn -0.309375 0.853835 0.418633
vn -0.708840 0.670474 -0.219112
vn -0.646190 0.150536 -0.748183
vn -0.209283 -0.382036 -0.900138
vn 0.310964 -0.432612 -0.846256
vn 0.963714 -0.122138 0.237355
vn 0.867682 0.020787 0.496685
vn 0.694578 -0.675879 0.246474
vn 0.724866 -0.522493 0.448966
vn 0.852453 0.060723 0.519266
vn 0.569932 0.678195 0.463929
vn 0.475373 0.663080 0.578226
vn -0.055745 0.986481 0.154105
vn -0.196905 0.935496 0.293386
vn -0.675739 0.686995 -0.267236
vn -0.750204 0.632373 -0.193129
vn -0.855892 -0.014061 -0.516963
vn -0.830998 -0.004789 -0.556255
vn -0.567302 -0.665118 -0.485578
vn -0.465959 -0.601017 -0.649354
vn 0.046468 -0.980677 -0.190037
vn -0.032483 -0.907798 -0.418148
vn -0.466760 -0.808233 -0.359017
vn 0.532719 -0.566053 0.629122
vn -0.239478 0.438547 -0.866214
vn 0.804175 0.548860 0.228156
vn 0.572416 -0.537479 0.619238
vn -0.493387 -0.740633 -0.456106
vn 0.868565 -0.118169 -0.481280
vn -0.539147 0.559527 -0.629484
vn 0.516004 0.739913 0.431589
vn 0.167962 -0.258721 0.951237
vn -0.924562 0.282496 0.255697
vn 0.952479 0.288391 0.098055
vn -0.004103 0.819270 -0.573394
vn 0.113483 0.839131 0.531960
s 1
f 1/1/1 2/2/2 10/3/3 9/4/4
f 2/2/2 3/5/5 11/6/6 10/3/3
f 3/5/5 4/7/7 12/8/8 11/6/6
f 4/7/7 5/9/9 13/10/10 12/8/8
f 5/9/9 6/101/11 14/11/12 13/10/10
f 6/101/11 7/102/13 15/96/14 14/11/12
f 7/12/13 8/14/15 16/15/16 15/13/14
f 8/14/15 1/1/1 9/4/4 16/15/16
f 9/4/4 10/3/3 18/16/17 17/17/18
f 10/3/3 11/6/6 19/18/19 18/16/17
f 11/6/6 12/8/8 20/19/20 19/18/19
f 12/8/8 13/10/10 21/20/21 20/19/20
f 13/10/10 14/11/12 22/21/22 21/20/21
f 14/11/12 15/96/14 23/97/23 22/21/22
f 15/13/14 16/15/16 24/23/24 23/22/23
f 16/15/16 9/4/4 17/17/18 24/23/24
f 17/17/18 18/16/17 26/24/25 25/25/26
f 18/16/17 19/18/19 27/26/27 26/24/25
f 19/18/19 20/19/20 28/27/28 27/26/27
f 20/19/20 21/20/21 29/28/29 28/27/28
f 21/20/21 22/21/22 30/29/30 29/28/29
f 22/21/22 23/97/23 31/98/31 30/29/30
f 23/22/23 24/23/24 32/31/32 31/30/31
f 24/23/24 17/17/18 25/25/26 32/31/32
f 25/25/26 26/24/25 34/32/33 33/33/34
f 26/24/25 27/26/27 35/34/35 34/32/33
f 27/26/27 28/27/28 36/35/36 35/34/35
f 28/27/28 29/28/29 37/36/37 36/35/36
f 29/28/29 30/29/30 38/37/38 37/36/37
f 30/29/30 31/98/31 39/99/39 38/37/38
f 31/30/31 32/31/32 40/39/40 39/38/39
f 32/31/32 25/25/26 33/33/34 40/39/40
f 33/33/34 34/32/33 42/40/41 41/41/42
f 34/32/33 35/34/35 43/42/43 42/40/41
f 35/34/35 36/35/36 44/43/44 43/42/43
f 36/35/36 37/36/37 45/44/45 44/43/44
f 37/36/37 38/37/38 46/45/46 45/44/45
f 38/37/38 39/99/39 47/100/47 46/45/46
f 39/38/39 40/39/40 48/47/48 47/46/47
f 40/39/40 33/33/34 41/41/42 48/47/48
f 41/41/42 42/40/41 55/48/49 56/49/50
f 42/40/41 43/42/43 54/50/51 55/48/49
f 43/42/43 44/43/44 53/51/52 54/50/51
f 44/43/44 45/44/45 52/52/53 53/51/52
f 45/44/45 46/45/46 51/53/54 52/52/53
f 46/45/46 47/100/47 50/104/55 51/53/54
f 47/46/47 48/47/48 57/55/56 50/54/55
f 48/47/48 41/41/42 56/49/50 57/55/56
f 2/2/2 1/1/1 49/103/57
f 3/5/5 2/2/2 49/103/57
f 4/7/7 3/5/5 49/103/57
f 5/9/9 4/7/7 49/103/57
f 6/101/11 5/9/9 49/103/57
f 7/102/13 6/101/11 49/103/57
f 8/14/15 7/102/13 49/103/57
f 1/1/1 8/14/15 49/103/57
f 51/53/54 50/104/55 58/105/58 59/57/59
f 52/52/53 51/53/54 59/57/59 60/58/60
f 53/51/52 52/52/53 60/58/60 61/59/61
f 54/50/51 53/51/52 61/59/61 62/60/62
f 55/48/49 54/50/51 62/60/62 63/61/63
f 56/49/50 55/48/49 63/61/63 64/62/64
f 57/55/56 56/49/50 64/62/64 65/63/65
f 50/54/55 57/55/56 65/63/65 58/56/58
f 59/57/59 58/105/58 66/106/66 67/65/67
f 60/58/60 59/57/59 67/65/67 68/66/68
f 61/59/61 60/58/60 68/66/68 69/67/69
f 62/60/62 61/59/61 69/67/69 70/68/70
f 63/61/63 62/60/62 70/68/70 71/69/71
f 64/62/64 63/61/63 71/69/71 72/70/72
f 65/63/65 64/62/64 72/70/72 73/71/73
f 58/56/58 65/63/65 73/71/73 66/64/66
f 67/65/67 66/106/66 74/107/74 75/108/75
f 68/66/68 67/65/67 75/108/75 76/114/76
f 69/67/69 68/66/68 76/114/76 77/75/77
f 70/68/70 69/67/69 77/75/77 78/76/78
f 71/69/71 70/68/70 78/76/78 79/77/79
f 72/70/72 71/69/71 79/77/79 80/78/80
f 73/71/73 72/70/72 80/78/80 81/79/81
f 66/64/66 73/71/73 81/79/81 74/72/74
f 75/73/75 74/72/74 119/143/82 112/134/83
f 77/112/77 76/74/76 113/135/84 114/138/85
f 78/76/78 77/75/77 114/137/85 115/139/86
f 79/77/79 78/76/78 115/139/86 116/140/87
f 80/78/80 79/77/79 116/140/87 117/141/88
f 81/79/81 80/78/80 117/141/88 118/142/89
f 74/72/74 81/79/81 118/142/89 119/143/82
f 83/86/90 82/87/91 98/88/92
f 84/116/93 83/86/90 98/88/92
f 85/90/94 84/115/93 98/91/92
f 86/92/95 85/90/94 98/91/92
f 87/93/96 86/92/95 98/91/92
f 88/94/97 87/93/96 98/91/92
f 89/95/98 88/94/97 98/88/92
f 82/87/91 89/95/98 98/88/92
f 91/80/99 90/85/100 99/117/101 100/118/102
f 92/81/103 91/80/99 100/118/102 101/119/104
f 93/113/105 92/81/103 101/119/104 102/121/106
f 94/111/107 93/110/105 102/120/106 103/122/108
f 95/82/109 94/111/107 103/122/108 104/123/110
f 96/83/111 95/82/109 104/123/110 105/124/112
f 97/84/113 96/83/111 105/124/112 106/125/114
f 90/85/100 97/84/113 106/125/114 99/117/101
f 100/118/102 99/117/101 89/95/98 82/87/91
f 101/119/104 100/118/102 82/87/91 83/86/90
f 102/121/106 101/119/104 83/86/90 84/116/93
f 103/122/108 102/120/106 84/89/93 85/90/94
f 104/123/110 103/122/108 85/90/94 86/92/95
f 105/124/112 104/123/110 86/92/95 87/93/96
f 106/161/114 105/162/112 87/163/96 88/164/97
f 99/117/101 106/125/114 123/150/115 124/151/116
f 106/161/114 88/164/97 122/165/117 123/166/115
f 88/128/97 89/131/98 121/149/118 122/170/117
f 89/129/98 99/132/101 124/148/116 121/174/118
f 108/126/119 107/127/120 111/130/121
f 107/167/120 109/168/122 111/169/121
f 109/171/122 110/172/123 111/173/121
f 110/175/123 108/176/119 111/177/121
f 113/136/84 112/133/83 92/109/103 93/110/105
f 114/138/85 113/135/84 93/110/105 94/111/107
f 115/139/86 114/137/85 94/111/107 95/82/109
f 116/140/87 115/139/86 95/82/109 96/83/111
f 117/141/88 116/140/87 96/83/111 97/84/113
f 118/142/89 117/141/88 97/84/113 90/85/100
f 119/143/82 118/142/89 90/85/100 91/80/99
f 112/134/83 119/143/82 91/80/99 92/81/103
f 76/144/76 75/145/75 126/146/124 127/147/125
f 75/145/75 112/152/83 125/160/126 126/146/124
f 112/152/83 113/157/84 128/158/127 125/160/126
f 113/153/84 76/144/76 127/147/125 128/154/127
f 122/170/117 121/149/118 110/172/123 109/171/122
f 123/166/115 122/165/117 109/168/122 107/167/120
f 124/151/116 123/150/115 107/127/120 108/126/119
f 121/174/118 124/148/116 108/176/119 110/175/123
f 126/159/124 125/160/126 120/156/128
f 127/147/125 126/146/124 120/155/128
f 128/154/127 127/147/125 120/155/128
f 125/160/126 128/158/127 120/156/128
